<?xml version="1.0" standalone="no"?>
<!DOCTYPE svg PUBLIC "-//W3C//DTD SVG 20010904//EN"
 "http://www.w3.org/TR/2001/REC-SVG-20010904/DTD/svg10.dtd">
<svg version="1.0" xmlns="http://www.w3.org/2000/svg"
 width="512.000000pt" height="512.000000pt" viewBox="0 0 512.000000 512.000000"
 preserveAspectRatio="xMidYMid meet">
<metadata>
Created by potrace 1.14, written by Peter Selinger 2001-2017
</metadata>
<g transform="translate(0.000000,512.000000) scale(0.100000,-0.100000)"
fill="#000000" stroke="none">
<path d="M975 4772 c-130 -11 -224 -41 -268 -86 -28 -28 -43 -68 -33 -85 4 -6
80 -47 169 -93 138 -70 172 -92 228 -148 55 -54 68 -74 77 -114 18 -88 3 -137
-79 -251 -117 -162 -158 -243 -294 -570 -166 -399 -251 -630 -301 -820 -11
-41 -44 -198 -49 -230 -3 -23 -8 -52 -10 -65 -7 -33 -18 -240 -17 -310 0 -30
3 -113 5 -185 7 -189 -8 -232 -134 -390 -104 -129 -179 -347 -204 -590 -22
-211 -53 -452 -61 -475 -8 -23 4 -8 114 145 194 267 397 448 567 504 56 19
149 22 210 8 57 -14 202 -88 355 -181 19 -12 47 -27 61 -33 l27 -11 -10 41
c-22 100 -99 251 -173 342 -18 22 -80 90 -139 150 -132 136 -165 198 -171 313
-7 130 20 225 131 457 43 91 120 216 191 310 238 314 570 561 1023 759 47 21
99 44 117 52 53 24 54 22 48 -73 -14 -241 -43 -345 -126 -459 -21 -28 -45 -59
-55 -69 -17 -17 -13 -17 106 -11 69 3 136 8 150 12 130 32 231 80 318 154 118
99 208 238 323 501 l52 119 61 1 c189 4 355 -10 496 -41 71 -15 263 -79 368
-122 15 -6 32 -12 37 -14 6 -1 69 -24 140 -49 262 -94 485 -157 630 -179 75
-12 201 -13 211 -3 2 2 -31 17 -73 32 -116 42 -183 78 -277 149 -86 66 -141
91 -218 100 -24 3 -69 8 -101 11 -54 6 -148 33 -120 34 6 1 23 -3 36 -8 13 -5
69 -12 123 -16 154 -10 195 -22 265 -76 95 -75 249 -142 378 -166 14 -2 28 -6
33 -9 4 -3 8 4 8 16 0 81 -127 207 -284 281 l-48 22 33 16 c18 9 44 32 57 51
22 32 24 43 19 116 -5 88 -40 186 -109 302 -33 56 -178 209 -271 287 -27 22
-54 45 -60 51 -29 26 -171 127 -253 180 -287 185 -694 335 -1004 369 -30 4
-66 9 -80 11 -104 20 -579 13 -701 -11 -76 -15 -127 -19 -239 -19 -113 0 -296
10 -353 19 -12 2 -60 6 -107 10 -89 6 -147 12 -215 20 -119 14 -449 25 -530
17z"/>
</g>
</svg>
